<svg xmlns="http://www.w3.org/2000/svg" xmlns:xlink="http://www.w3.org/1999/xlink" width="1124" zoomAndPan="magnify" viewBox="0 0 842.88 304.499991" height="406" preserveAspectRatio="xMidYMid meet" version="1.0"><defs><clipPath id="d4db75723e"><path d="M 0.632812 0 L 842.128906 0 L 842.128906 304 L 0.632812 304 Z M 0.632812 0 " clip-rule="nonzero"/></clipPath><clipPath id="1135ffda75"><path d="M 1 7 L 841.5 7 L 841.5 198.429688 L 1 198.429688 Z M 1 7 " clip-rule="nonzero"/></clipPath><clipPath id="ab3c21d017"><path d="M 1 59 L 841.5 59 L 841.5 259.074219 L 1 259.074219 Z M 1 59 " clip-rule="nonzero"/></clipPath><clipPath id="813ef4b5b6"><path d="M 1 112 L 841.5 112 L 841.5 296.886719 L 1 296.886719 Z M 1 112 " clip-rule="nonzero"/></clipPath><clipPath id="e45026b51f"><path d="M 1 170 L 841.5 170 L 841.5 303.625 L 1 303.625 Z M 1 170 " clip-rule="nonzero"/></clipPath></defs><g clip-path="url(#d4db75723e)"><path fill="#ffffff" d="M 0.632812 0 L 842.25 0 L 842.25 304 L 0.632812 304 Z M 0.632812 0 " fill-opacity="1" fill-rule="nonzero"/></g><g clip-path="url(#1135ffda75)"><path fill="#611912" d="M 840.894531 306.273438 L 1.179688 306.273438 L 1.179688 39.328125 C 44.683594 20.460938 109.605469 0.0351562 182.894531 10.304688 C 268.003906 22.21875 314.59375 68.53125 357.550781 93.226562 C 432.761719 136.460938 569.761719 155.429688 841.234375 39.675781 Z M 840.894531 306.273438 " fill-opacity="1" fill-rule="nonzero"/></g><g clip-path="url(#ab3c21d017)"><path fill="#91251c" d="M 840.894531 358.679688 L 1.179688 358.679688 L 1.179688 91.738281 C 44.683594 72.871094 109.605469 52.445312 182.894531 62.710938 C 268.003906 74.628906 314.59375 120.941406 357.550781 145.636719 C 432.761719 188.871094 569.761719 207.835938 841.234375 92.085938 Z M 840.894531 358.679688 " fill-opacity="1" fill-rule="nonzero"/></g><g clip-path="url(#813ef4b5b6)"><path fill="#c23225" d="M 840.894531 411.46875 L 1.179688 411.46875 L 1.179688 144.523438 C 44.683594 125.660156 109.605469 105.234375 182.894531 115.5 C 268.003906 127.414062 314.59375 173.726562 357.550781 198.425781 C 432.761719 241.660156 569.761719 260.625 841.234375 144.871094 Z M 840.894531 411.46875 " fill-opacity="1" fill-rule="nonzero"/></g><g clip-path="url(#e45026b51f)"><path fill="#f23e2e" d="M 840.894531 469.121094 L 1.179688 469.121094 L 1.179688 202.179688 C 44.683594 183.3125 109.605469 162.886719 182.894531 173.15625 C 268.003906 185.070312 314.59375 231.382812 357.550781 256.078125 C 432.761719 299.3125 569.761719 318.277344 841.234375 202.527344 Z M 840.894531 469.121094 " fill-opacity="1" fill-rule="nonzero"/></g></svg>