<svg xmlns="http://www.w3.org/2000/svg" xmlns:xlink="http://www.w3.org/1999/xlink" width="1124" zoomAndPan="magnify" viewBox="0 0 842.88 304.499991" height="406" preserveAspectRatio="xMidYMid meet" version="1.0"><defs><g/><clipPath id="b681186142"><path d="M 0.632812 0 L 842.128906 0 L 842.128906 304 L 0.632812 304 Z M 0.632812 0 " clip-rule="nonzero"/></clipPath><clipPath id="46a615b3ce"><path d="M 1 105.089844 L 841.792969 105.089844 L 841.792969 296 L 1 296 Z M 1 105.089844 " clip-rule="nonzero"/></clipPath><clipPath id="cfdca1bf0d"><path d="M 1 44.445312 L 841.792969 44.445312 L 841.792969 244 L 1 244 Z M 1 44.445312 " clip-rule="nonzero"/></clipPath><clipPath id="300a6063e0"><path d="M 1 6.632812 L 841.792969 6.632812 L 841.792969 191 L 1 191 Z M 1 6.632812 " clip-rule="nonzero"/></clipPath><clipPath id="334fe9e8eb"><path d="M 1 0 L 841.792969 0 L 841.792969 134 L 1 134 Z M 1 0 " clip-rule="nonzero"/></clipPath></defs><g clip-path="url(#b681186142)"><path fill="#ffffff" d="M 0.632812 0 L 842.25 0 L 842.25 304 L 0.632812 304 Z M 0.632812 0 " fill-opacity="1" fill-rule="nonzero"/></g><g clip-path="url(#46a615b3ce)"><path fill="#611912" d="M 1.527344 -2.75 L 841.242188 -2.75 L 841.242188 264.191406 C 797.742188 283.058594 732.820312 303.484375 659.527344 293.21875 C 574.417969 281.300781 527.828125 234.988281 484.871094 210.292969 C 409.664062 167.058594 272.660156 148.09375 1.191406 263.84375 Z M 1.527344 -2.75 " fill-opacity="1" fill-rule="nonzero"/></g><g clip-path="url(#cfdca1bf0d)"><path fill="#91251c" d="M 1.527344 -55.160156 L 841.242188 -55.160156 L 841.242188 211.785156 C 797.742188 230.648438 732.820312 251.074219 659.527344 240.808594 C 574.417969 228.894531 527.828125 182.582031 484.871094 157.882812 C 409.664062 114.648438 272.660156 95.683594 1.191406 211.4375 Z M 1.527344 -55.160156 " fill-opacity="1" fill-rule="nonzero"/></g><g clip-path="url(#300a6063e0)"><path fill="#c23225" d="M 1.527344 -107.945312 L 841.242188 -107.945312 L 841.242188 158.996094 C 797.742188 177.863281 732.820312 198.289062 659.527344 188.019531 C 574.417969 176.105469 527.828125 129.792969 484.871094 105.097656 C 409.664062 61.863281 272.660156 42.898438 1.191406 158.648438 Z M 1.527344 -107.945312 " fill-opacity="1" fill-rule="nonzero"/></g><g clip-path="url(#334fe9e8eb)"><path fill="#f23e2e" d="M 1.527344 -165.601562 L 841.242188 -165.601562 L 841.242188 101.339844 C 797.742188 120.207031 732.820312 140.632812 659.527344 130.367188 C 574.417969 118.449219 527.828125 72.136719 484.871094 47.441406 C 409.664062 4.207031 272.660156 -14.757812 1.191406 100.992188 Z M 1.527344 -165.601562 " fill-opacity="1" fill-rule="nonzero"/></g><g fill="#000000" fill-opacity="0.302"><g transform="translate(161.505494, 132.329771)"><g><path d="M 37.6875 -61.5 C 37.976562 -63.195312 38.648438 -64.425781 39.703125 -65.1875 C 40.765625 -65.945312 41.953125 -66.3125 43.265625 -66.28125 C 44.585938 -66.257812 45.847656 -65.910156 47.046875 -65.234375 C 48.242188 -64.554688 49.179688 -63.601562 49.859375 -62.375 C 50.535156 -61.144531 50.695312 -59.679688 50.34375 -57.984375 C 47.175781 -41.878906 45.007812 -25.625 43.84375 -9.21875 C 43.726562 -7.519531 43.1875 -6.160156 42.21875 -5.140625 C 41.25 -4.117188 40.085938 -3.445312 38.734375 -3.125 C 37.390625 -2.800781 36.085938 -2.800781 34.828125 -3.125 C 33.578125 -3.445312 32.539062 -4.117188 31.71875 -5.140625 C 30.894531 -6.160156 30.539062 -7.519531 30.65625 -9.21875 C 30.832031 -11.976562 31.050781 -14.71875 31.3125 -17.4375 C 31.582031 -20.164062 31.863281 -22.90625 32.15625 -25.65625 L 20.125 -25.65625 C 19.707031 -22.195312 19.296875 -18.722656 18.890625 -15.234375 C 18.484375 -11.753906 18.070312 -8.257812 17.65625 -4.75 C 17.425781 -3.101562 16.8125 -1.78125 15.8125 -0.78125 C 14.820312 0.207031 13.648438 0.875 12.296875 1.21875 C 10.953125 1.570312 9.632812 1.585938 8.34375 1.265625 C 7.050781 0.953125 6.023438 0.285156 5.265625 -0.734375 C 4.503906 -1.765625 4.242188 -3.101562 4.484375 -4.75 C 5.003906 -9.601562 5.554688 -14.445312 6.140625 -19.28125 C 6.734375 -24.113281 7.289062 -28.929688 7.8125 -33.734375 C 8.113281 -36.078125 8.410156 -38.40625 8.703125 -40.71875 C 8.992188 -43.03125 9.253906 -45.359375 9.484375 -47.703125 C 9.722656 -49.753906 9.914062 -51.921875 10.0625 -54.203125 C 10.207031 -56.492188 10.660156 -58.632812 11.421875 -60.625 C 12.003906 -62.207031 12.894531 -63.347656 14.09375 -64.046875 C 15.300781 -64.753906 16.59375 -65.09375 17.96875 -65.0625 C 19.34375 -65.03125 20.613281 -64.675781 21.78125 -64 C 22.957031 -63.332031 23.796875 -62.410156 24.296875 -61.234375 C 24.796875 -60.066406 24.722656 -58.691406 24.078125 -57.109375 C 23.367188 -55.171875 22.957031 -53.070312 22.84375 -50.8125 C 22.726562 -48.5625 22.550781 -46.441406 22.3125 -44.453125 C 22.195312 -43.515625 22.082031 -42.578125 21.96875 -41.640625 C 21.851562 -40.703125 21.734375 -39.765625 21.609375 -38.828125 L 33.828125 -38.828125 C 34.347656 -42.640625 34.929688 -46.429688 35.578125 -50.203125 C 36.222656 -53.984375 36.925781 -57.75 37.6875 -61.5 Z M 37.6875 -61.5 "/></g></g></g><g fill="#000000" fill-opacity="0.302"><g transform="translate(216.412912, 132.329771)"><g><path d="M 36.640625 -18.625 C 38.335938 -18.5625 39.695312 -18.078125 40.71875 -17.171875 C 41.75 -16.265625 42.425781 -15.148438 42.75 -13.828125 C 43.070312 -12.515625 43.070312 -11.195312 42.75 -9.875 C 42.425781 -8.5625 41.75 -7.476562 40.71875 -6.625 C 39.695312 -5.78125 38.335938 -5.414062 36.640625 -5.53125 C 32.648438 -5.644531 28.664062 -5.613281 24.6875 -5.4375 C 20.707031 -5.269531 16.722656 -4.863281 12.734375 -4.21875 C 11.503906 -3.976562 10.21875 -4.078125 8.875 -4.515625 C 7.53125 -4.960938 6.398438 -5.679688 5.484375 -6.671875 C 4.578125 -7.671875 4.242188 -8.960938 4.484375 -10.546875 C 5.472656 -18.679688 6.566406 -26.789062 7.765625 -34.875 C 8.972656 -42.957031 10.28125 -51.015625 11.6875 -59.046875 C 11.863281 -60.035156 12.210938 -60.910156 12.734375 -61.671875 C 13.203125 -62.492188 13.875 -63.164062 14.75 -63.6875 C 15.632812 -64.21875 16.722656 -64.515625 18.015625 -64.578125 C 24.335938 -64.804688 30.660156 -64.6875 36.984375 -64.21875 C 38.679688 -64.101562 40.039062 -63.5625 41.0625 -62.59375 C 42.09375 -61.632812 42.769531 -60.492188 43.09375 -59.171875 C 43.414062 -57.859375 43.414062 -56.554688 43.09375 -55.265625 C 42.769531 -53.972656 42.09375 -52.914062 41.0625 -52.09375 C 40.039062 -51.28125 38.679688 -50.929688 36.984375 -51.046875 C 32.648438 -51.335938 28.226562 -51.484375 23.71875 -51.484375 C 23.425781 -49.785156 23.132812 -48.085938 22.84375 -46.390625 C 22.550781 -44.691406 22.285156 -42.992188 22.046875 -41.296875 C 24.453125 -41.234375 26.769531 -41.113281 29 -40.9375 C 30.75 -40.707031 32.28125 -40.035156 33.59375 -38.921875 C 34.914062 -37.804688 35.578125 -36.285156 35.578125 -34.359375 C 35.578125 -33.242188 35.269531 -32.15625 34.65625 -31.09375 C 34.039062 -30.039062 33.234375 -29.191406 32.234375 -28.546875 C 31.242188 -27.910156 30.164062 -27.648438 29 -27.765625 C 26.007812 -28.054688 23.019531 -28.171875 20.03125 -28.109375 C 19.800781 -26.472656 19.566406 -24.816406 19.328125 -23.140625 C 19.097656 -21.472656 18.863281 -19.789062 18.625 -18.09375 C 21.613281 -18.382812 24.597656 -18.585938 27.578125 -18.703125 C 30.566406 -18.828125 33.585938 -18.800781 36.640625 -18.625 Z M 36.640625 -18.625 "/></g></g></g><g fill="#000000" fill-opacity="0.302"><g transform="translate(264.116476, 132.329771)"><g><path d="M 35.5 -56.75 C 35.675781 -58.394531 36.273438 -59.65625 37.296875 -60.53125 C 38.316406 -61.414062 39.484375 -61.898438 40.796875 -61.984375 C 42.117188 -62.066406 43.410156 -61.832031 44.671875 -61.28125 C 45.929688 -60.726562 46.925781 -59.863281 47.65625 -58.6875 C 48.394531 -57.519531 48.644531 -56.113281 48.40625 -54.46875 C 47.9375 -50.664062 47.5 -46.640625 47.09375 -42.390625 C 46.6875 -38.140625 46.085938 -33.875 45.296875 -29.59375 C 44.503906 -25.320312 43.359375 -21.238281 41.859375 -17.34375 C 40.367188 -13.457031 38.332031 -9.972656 35.75 -6.890625 C 33.175781 -3.816406 29.867188 -1.375 25.828125 0.4375 C 24.304688 1.144531 22.914062 1.289062 21.65625 0.875 C 20.394531 0.46875 19.382812 -0.273438 18.625 -1.359375 C 17.863281 -2.441406 17.410156 -3.671875 17.265625 -5.046875 C 17.117188 -6.421875 17.351562 -7.722656 17.96875 -8.953125 C 18.582031 -10.191406 19.648438 -11.160156 21.171875 -11.859375 C 23.160156 -12.734375 24.785156 -13.976562 26.046875 -15.59375 C 27.304688 -17.207031 28.316406 -18.976562 29.078125 -20.90625 C 26.679688 -20.03125 24.238281 -19.617188 21.75 -19.671875 C 19.257812 -19.734375 16.8125 -20.351562 14.40625 -21.53125 C 11.25 -23.164062 8.894531 -25.414062 7.34375 -28.28125 C 5.789062 -31.15625 4.863281 -34.304688 4.5625 -37.734375 C 4.269531 -41.160156 4.429688 -44.585938 5.046875 -48.015625 C 5.660156 -51.441406 6.582031 -54.53125 7.8125 -57.28125 C 8.457031 -58.863281 9.394531 -59.929688 10.625 -60.484375 C 11.851562 -61.046875 13.128906 -61.191406 14.453125 -60.921875 C 15.773438 -60.660156 16.960938 -60.101562 18.015625 -59.25 C 19.066406 -58.40625 19.78125 -57.320312 20.15625 -56 C 20.539062 -54.6875 20.410156 -53.269531 19.765625 -51.75 C 19.296875 -50.695312 18.828125 -49.332031 18.359375 -47.65625 C 17.890625 -45.988281 17.550781 -44.21875 17.34375 -42.34375 C 17.144531 -40.46875 17.21875 -38.722656 17.5625 -37.109375 C 17.914062 -35.503906 18.738281 -34.289062 20.03125 -33.46875 C 21.207031 -32.707031 22.484375 -32.472656 23.859375 -32.765625 C 25.234375 -33.054688 26.550781 -33.671875 27.8125 -34.609375 C 29.070312 -35.546875 30.195312 -36.628906 31.1875 -37.859375 C 32.1875 -39.097656 32.976562 -40.242188 33.5625 -41.296875 C 33.914062 -43.867188 34.238281 -46.441406 34.53125 -49.015625 C 34.820312 -51.597656 35.144531 -54.175781 35.5 -56.75 Z M 35.5 -56.75 "/></g></g></g><g fill="#000000" fill-opacity="0.302"><g transform="translate(317.003301, 132.329771)"><g><path d="M 14.5 -20.828125 C 16.25 -20.828125 17.8125 -20.179688 19.1875 -18.890625 C 20.570312 -17.597656 21.207031 -16.046875 21.09375 -14.234375 C 20.96875 -11.597656 20.539062 -9.035156 19.8125 -6.546875 C 19.082031 -4.054688 18.039062 -1.671875 16.6875 0.609375 C 15.75 2.140625 14.398438 3.140625 12.640625 3.609375 C 10.890625 4.078125 9.222656 3.867188 7.640625 2.984375 C 6.117188 2.046875 5.109375 0.6875 4.609375 -1.09375 C 4.109375 -2.882812 4.328125 -4.539062 5.265625 -6.0625 C 6.910156 -8.757812 7.789062 -11.484375 7.90625 -14.234375 C 8.019531 -16.046875 8.691406 -17.597656 9.921875 -18.890625 C 11.148438 -20.179688 12.675781 -20.828125 14.5 -20.828125 Z M 14.5 -20.828125 "/></g></g></g><g fill="#000000" fill-opacity="0.302"><g transform="translate(342.480336, 132.329771)"><g/></g></g><g fill="#000000" fill-opacity="0.302"><g transform="translate(369.187308, 132.329771)"><g><path d="M 8.34375 -54.203125 C 8.519531 -55.847656 9.101562 -57.179688 10.09375 -58.203125 C 11.09375 -59.234375 12.265625 -59.90625 13.609375 -60.21875 C 14.960938 -60.539062 16.28125 -60.539062 17.5625 -60.21875 C 18.851562 -59.90625 19.878906 -59.25 20.640625 -58.25 C 21.410156 -57.25 21.707031 -55.898438 21.53125 -54.203125 C 19.832031 -38.335938 18.515625 -22.4375 17.578125 -6.5 C 17.453125 -4.800781 16.921875 -3.453125 15.984375 -2.453125 C 15.046875 -1.460938 13.914062 -0.789062 12.59375 -0.4375 C 11.28125 -0.0820312 9.976562 -0.0820312 8.6875 -0.4375 C 7.40625 -0.789062 6.335938 -1.460938 5.484375 -2.453125 C 4.640625 -3.453125 4.273438 -4.800781 4.390625 -6.5 C 5.328125 -22.4375 6.644531 -38.335938 8.34375 -54.203125 Z M 8.34375 -54.203125 "/></g></g></g><g fill="#000000" fill-opacity="0.302"><g transform="translate(395.191474, 132.329771)"><g><path d="M 19.5 -59.921875 C 20.90625 -58.628906 21.535156 -57.078125 21.390625 -55.265625 C 21.242188 -53.453125 20.613281 -51.898438 19.5 -50.609375 C 19.5 -50.609375 19.484375 -50.59375 19.453125 -50.5625 C 19.429688 -50.53125 19.421875 -50.515625 19.421875 -50.515625 C 19.179688 -50.160156 18.972656 -49.867188 18.796875 -49.640625 C 18.742188 -49.460938 18.671875 -49.269531 18.578125 -49.0625 C 18.492188 -48.863281 18.394531 -48.675781 18.28125 -48.5 C 18.28125 -48.4375 18.21875 -48.273438 18.09375 -48.015625 C 17.976562 -47.753906 17.921875 -47.59375 17.921875 -47.53125 C 17.859375 -47.414062 17.796875 -47.148438 17.734375 -46.734375 C 17.679688 -46.328125 17.625 -46.035156 17.5625 -45.859375 C 17.507812 -45.679688 17.515625 -45.859375 17.578125 -46.390625 C 17.398438 -44.578125 16.753906 -43.050781 15.640625 -41.8125 C 14.523438 -40.582031 12.972656 -39.910156 10.984375 -39.796875 C 9.929688 -39.742188 8.863281 -40.035156 7.78125 -40.671875 C 6.695312 -41.316406 5.832031 -42.148438 5.1875 -43.171875 C 4.539062 -44.203125 4.273438 -45.273438 4.390625 -46.390625 C 4.679688 -48.960938 5.296875 -51.363281 6.234375 -53.59375 C 7.171875 -55.820312 8.488281 -57.929688 10.1875 -59.921875 C 11.363281 -61.328125 12.898438 -61.957031 14.796875 -61.8125 C 16.703125 -61.664062 18.269531 -61.035156 19.5 -59.921875 Z M 19.5 -59.921875 "/></g></g></g><g fill="#000000" fill-opacity="0.302"><g transform="translate(420.932057, 132.329771)"><g><path d="M 65.625 -31.359375 C 65.6875 -26.441406 65.5 -21.507812 65.0625 -16.5625 C 64.625 -11.613281 64.171875 -6.675781 63.703125 -1.75 C 63.523438 -0.113281 62.953125 1.210938 61.984375 2.234375 C 61.015625 3.265625 59.859375 3.941406 58.515625 4.265625 C 57.171875 4.585938 55.851562 4.585938 54.5625 4.265625 C 53.269531 3.941406 52.226562 3.28125 51.4375 2.28125 C 50.644531 1.289062 50.335938 -0.0507812 50.515625 -1.75 C 50.929688 -5.625 51.375 -9.609375 51.84375 -13.703125 C 52.3125 -17.804688 52.617188 -21.90625 52.765625 -26 C 52.910156 -30.101562 52.628906 -34.085938 51.921875 -37.953125 C 51.804688 -38.660156 51.613281 -39.363281 51.34375 -40.0625 C 51.082031 -40.769531 50.925781 -41.472656 50.875 -42.171875 C 50.226562 -41.410156 49.507812 -40.660156 48.71875 -39.921875 C 47.925781 -39.191406 47.328125 -38.507812 46.921875 -37.875 C 45.566406 -35.820312 44.523438 -33.695312 43.796875 -31.5 C 43.066406 -29.300781 42.492188 -27.03125 42.078125 -24.6875 C 41.847656 -23.21875 41.234375 -22.101562 40.234375 -21.34375 C 39.242188 -20.582031 38.101562 -20.144531 36.8125 -20.03125 C 35.519531 -19.914062 34.257812 -20.09375 33.03125 -20.5625 C 31.800781 -21.03125 30.804688 -21.757812 30.046875 -22.75 C 29.285156 -23.75 28.992188 -24.984375 29.171875 -26.453125 C 29.285156 -28.023438 29.382812 -29.617188 29.46875 -31.234375 C 29.5625 -32.847656 29.578125 -34.441406 29.515625 -36.015625 C 29.515625 -36.546875 29.53125 -37.296875 29.5625 -38.265625 C 29.59375 -39.234375 29.5625 -40.1875 29.46875 -41.125 C 29.382812 -42.0625 29.140625 -42.765625 28.734375 -43.234375 C 28.609375 -43.347656 28.578125 -43.460938 28.640625 -43.578125 C 28.578125 -43.578125 28.546875 -43.578125 28.546875 -43.578125 C 28.546875 -43.578125 28.519531 -43.578125 28.46875 -43.578125 C 27.9375 -43.460938 27.421875 -42.945312 26.921875 -42.03125 C 26.429688 -41.125 26.066406 -40.5 25.828125 -40.15625 C 25.179688 -39.09375 24.609375 -37.988281 24.109375 -36.84375 C 23.617188 -35.707031 23.164062 -34.582031 22.75 -33.46875 C 20.820312 -28.195312 19.5625 -22.796875 18.96875 -17.265625 C 18.382812 -11.734375 17.921875 -6.179688 17.578125 -0.609375 C 17.453125 1.085938 16.921875 2.429688 15.984375 3.421875 C 15.046875 4.421875 13.914062 5.09375 12.59375 5.4375 C 11.28125 5.789062 9.976562 5.789062 8.6875 5.4375 C 7.40625 5.09375 6.335938 4.421875 5.484375 3.421875 C 4.640625 2.429688 4.273438 1.085938 4.390625 -0.609375 C 4.679688 -5.242188 5.03125 -9.859375 5.4375 -14.453125 C 5.851562 -19.046875 6.5625 -23.597656 7.5625 -28.109375 C 8.144531 -30.867188 8.914062 -33.753906 9.875 -36.765625 C 10.84375 -39.785156 12.046875 -42.671875 13.484375 -45.421875 C 14.921875 -48.171875 16.664062 -50.570312 18.71875 -52.625 C 20.644531 -54.5 22.910156 -55.769531 25.515625 -56.4375 C 28.128906 -57.113281 30.679688 -57.054688 33.171875 -56.265625 C 35.660156 -55.484375 37.722656 -53.890625 39.359375 -51.484375 C 39.421875 -51.304688 39.507812 -51.128906 39.625 -50.953125 C 39.738281 -50.773438 39.828125 -50.628906 39.890625 -50.515625 C 41.585938 -52.503906 43.445312 -54.097656 45.46875 -55.296875 C 47.488281 -56.503906 49.582031 -57.046875 51.75 -56.921875 C 53.914062 -56.804688 56.140625 -55.753906 58.421875 -53.765625 C 60.472656 -51.953125 61.992188 -49.785156 62.984375 -47.265625 C 63.984375 -44.742188 64.660156 -42.109375 65.015625 -39.359375 C 65.367188 -36.609375 65.570312 -33.941406 65.625 -31.359375 Z M 65.625 -31.359375 "/></g></g></g><g fill="#000000" fill-opacity="0.302"><g transform="translate(490.949999, 132.329771)"><g/></g></g><g fill="#000000" fill-opacity="0.302"><g transform="translate(517.65696, 132.329771)"><g><path d="M 38.75 -21.875 C 40.445312 -21.988281 41.789062 -21.648438 42.78125 -20.859375 C 43.78125 -20.078125 44.453125 -19.039062 44.796875 -17.75 C 45.148438 -16.457031 45.148438 -15.132812 44.796875 -13.78125 C 44.453125 -12.4375 43.765625 -11.28125 42.734375 -10.3125 C 41.710938 -9.351562 40.382812 -8.816406 38.75 -8.703125 C 34.289062 -8.410156 29.910156 -7.851562 25.609375 -7.03125 C 21.304688 -6.207031 17.015625 -5.179688 12.734375 -3.953125 C 11.503906 -3.597656 10.21875 -3.671875 8.875 -4.171875 C 7.53125 -4.671875 6.414062 -5.460938 5.53125 -6.546875 C 4.65625 -7.628906 4.273438 -8.90625 4.390625 -10.375 C 5.097656 -17.21875 5.785156 -24.066406 6.453125 -30.921875 C 7.128906 -37.773438 7.789062 -44.628906 8.4375 -51.484375 C 8.613281 -53.128906 9.195312 -54.460938 10.1875 -55.484375 C 11.1875 -56.503906 12.359375 -57.175781 13.703125 -57.5 C 15.054688 -57.820312 16.359375 -57.820312 17.609375 -57.5 C 18.867188 -57.175781 19.894531 -56.515625 20.6875 -55.515625 C 21.476562 -54.523438 21.785156 -53.179688 21.609375 -51.484375 C 21.085938 -46.035156 20.5625 -40.601562 20.03125 -35.1875 C 19.5 -29.769531 18.972656 -24.367188 18.453125 -18.984375 C 25.066406 -20.390625 31.832031 -21.351562 38.75 -21.875 Z M 38.75 -21.875 "/></g></g></g><g fill="#000000" fill-opacity="0.302"><g transform="translate(567.117557, 132.329771)"><g><path d="M 51.390625 -49.90625 C 51.742188 -46.738281 51.773438 -43.296875 51.484375 -39.578125 C 51.191406 -35.859375 50.519531 -32.140625 49.46875 -28.421875 C 48.414062 -24.703125 46.9375 -21.242188 45.03125 -18.046875 C 43.125 -14.859375 40.78125 -12.164062 38 -9.96875 C 35.21875 -7.769531 31.984375 -6.347656 28.296875 -5.703125 C 24.421875 -5.066406 21.125 -5.363281 18.40625 -6.59375 C 15.6875 -7.820312 13.429688 -9.722656 11.640625 -12.296875 C 9.859375 -14.878906 8.4375 -17.835938 7.375 -21.171875 C 6.320312 -24.515625 5.578125 -28 5.140625 -31.625 C 4.703125 -35.257812 4.46875 -38.726562 4.4375 -42.03125 C 4.40625 -45.34375 4.476562 -48.257812 4.65625 -50.78125 C 4.769531 -52.425781 5.3125 -53.757812 6.28125 -54.78125 C 7.25 -55.800781 8.390625 -56.488281 9.703125 -56.84375 C 11.023438 -57.195312 12.328125 -57.195312 13.609375 -56.84375 C 14.898438 -56.488281 15.957031 -55.8125 16.78125 -54.8125 C 17.601562 -53.820312 17.953125 -52.476562 17.828125 -50.78125 C 17.773438 -49.90625 17.71875 -48.410156 17.65625 -46.296875 C 17.601562 -44.191406 17.632812 -41.804688 17.75 -39.140625 C 17.863281 -36.472656 18.109375 -33.789062 18.484375 -31.09375 C 18.867188 -28.40625 19.425781 -26.003906 20.15625 -23.890625 C 20.894531 -21.785156 21.878906 -20.265625 23.109375 -19.328125 C 24.335938 -18.390625 25.890625 -18.359375 27.765625 -19.234375 C 30.335938 -20.472656 32.382812 -22.289062 33.90625 -24.6875 C 35.4375 -27.09375 36.550781 -29.785156 37.25 -32.765625 C 37.957031 -35.753906 38.367188 -38.753906 38.484375 -41.765625 C 38.597656 -44.785156 38.507812 -47.5 38.21875 -49.90625 C 37.988281 -51.539062 38.253906 -52.867188 39.015625 -53.890625 C 39.773438 -54.921875 40.785156 -55.597656 42.046875 -55.921875 C 43.304688 -56.242188 44.609375 -56.226562 45.953125 -55.875 C 47.296875 -55.519531 48.476562 -54.84375 49.5 -53.84375 C 50.53125 -52.851562 51.160156 -51.539062 51.390625 -49.90625 Z M 51.390625 -49.90625 "/></g></g></g><g fill="#000000" fill-opacity="0.302"><g transform="translate(623.167074, 132.329771)"><g><path d="M 8.34375 -54.125 C 8.519531 -55.757812 9.101562 -57.070312 10.09375 -58.0625 C 11.09375 -59.0625 12.265625 -59.738281 13.609375 -60.09375 C 14.960938 -60.445312 16.28125 -60.460938 17.5625 -60.140625 C 18.851562 -59.816406 19.878906 -59.140625 20.640625 -58.109375 C 21.410156 -57.085938 21.707031 -55.757812 21.53125 -54.125 C 19.832031 -38.25 18.515625 -22.34375 17.578125 -6.40625 C 17.453125 -4.707031 16.921875 -3.347656 15.984375 -2.328125 C 15.046875 -1.304688 13.914062 -0.632812 12.59375 -0.3125 C 11.28125 0.0078125 9.976562 0.0078125 8.6875 -0.3125 C 7.40625 -0.632812 6.335938 -1.304688 5.484375 -2.328125 C 4.640625 -3.347656 4.273438 -4.707031 4.390625 -6.40625 C 5.328125 -22.34375 6.644531 -38.25 8.34375 -54.125 Z M 8.34375 -54.125 "/></g></g></g><g fill="#000000" fill-opacity="0.302"><g transform="translate(649.171217, 132.329771)"><g><path d="M 32.765625 -37.953125 C 36.046875 -35.722656 38.640625 -32.820312 40.546875 -29.25 C 42.453125 -25.675781 43.195312 -21.867188 42.78125 -17.828125 C 42.375 -14.316406 41.175781 -11.300781 39.1875 -8.78125 C 37.195312 -6.269531 34.75 -4.3125 31.84375 -2.90625 C 28.945312 -1.5 25.875 -0.71875 22.625 -0.5625 C 19.375 -0.414062 16.253906 -0.957031 13.265625 -2.1875 C 10.273438 -3.425781 7.753906 -5.421875 5.703125 -8.171875 C 4.648438 -9.515625 4.210938 -10.816406 4.390625 -12.078125 C 4.566406 -13.335938 5.109375 -14.4375 6.015625 -15.375 C 6.921875 -16.3125 8.046875 -16.96875 9.390625 -17.34375 C 10.742188 -17.726562 12.109375 -17.742188 13.484375 -17.390625 C 14.859375 -17.046875 16.046875 -16.195312 17.046875 -14.84375 C 17.515625 -14.195312 18.390625 -13.832031 19.671875 -13.75 C 20.960938 -13.664062 22.253906 -13.722656 23.546875 -13.921875 C 24.835938 -14.128906 25.742188 -14.347656 26.265625 -14.578125 C 27.492188 -15.171875 28.414062 -16.035156 29.03125 -17.171875 C 29.644531 -18.316406 29.867188 -19.5625 29.703125 -20.90625 C 29.523438 -22.550781 28.9375 -23.898438 27.9375 -24.953125 C 26.945312 -26.003906 25.757812 -26.925781 24.375 -27.71875 C 23 -28.507812 21.609375 -29.269531 20.203125 -30 C 18.796875 -30.738281 17.566406 -31.546875 16.515625 -32.421875 C 13.585938 -34.992188 11.800781 -37.785156 11.15625 -40.796875 C 10.507812 -43.816406 10.726562 -46.835938 11.8125 -49.859375 C 12.894531 -52.878906 14.578125 -55.617188 16.859375 -58.078125 C 19.148438 -60.535156 21.757812 -62.4375 24.6875 -63.78125 C 26.269531 -64.539062 27.734375 -64.742188 29.078125 -64.390625 C 30.429688 -64.046875 31.585938 -63.390625 32.546875 -62.421875 C 33.515625 -61.453125 34.175781 -60.320312 34.53125 -59.03125 C 34.882812 -57.75 34.828125 -56.503906 34.359375 -55.296875 C 33.890625 -54.097656 32.890625 -53.148438 31.359375 -52.453125 C 30.367188 -51.984375 29.210938 -51.335938 27.890625 -50.515625 C 26.578125 -49.703125 25.492188 -48.722656 24.640625 -47.578125 C 23.796875 -46.429688 23.632812 -45.15625 24.15625 -43.75 C 24.445312 -42.8125 25.132812 -42.003906 26.21875 -41.328125 C 27.300781 -40.660156 28.457031 -40.0625 29.6875 -39.53125 C 30.925781 -39.007812 31.953125 -38.484375 32.765625 -37.953125 Z M 32.765625 -37.953125 "/></g></g></g><g fill="#000000" fill-opacity="0.502"><g transform="translate(157.622799, 128.447072)"><g><path d="M 37.6875 -61.5 C 37.976562 -63.195312 38.648438 -64.425781 39.703125 -65.1875 C 40.765625 -65.945312 41.953125 -66.3125 43.265625 -66.28125 C 44.585938 -66.257812 45.847656 -65.910156 47.046875 -65.234375 C 48.242188 -64.554688 49.179688 -63.601562 49.859375 -62.375 C 50.535156 -61.144531 50.695312 -59.679688 50.34375 -57.984375 C 47.175781 -41.878906 45.007812 -25.625 43.84375 -9.21875 C 43.726562 -7.519531 43.1875 -6.160156 42.21875 -5.140625 C 41.25 -4.117188 40.085938 -3.445312 38.734375 -3.125 C 37.390625 -2.800781 36.085938 -2.800781 34.828125 -3.125 C 33.578125 -3.445312 32.539062 -4.117188 31.71875 -5.140625 C 30.894531 -6.160156 30.539062 -7.519531 30.65625 -9.21875 C 30.832031 -11.976562 31.050781 -14.71875 31.3125 -17.4375 C 31.582031 -20.164062 31.863281 -22.90625 32.15625 -25.65625 L 20.125 -25.65625 C 19.707031 -22.195312 19.296875 -18.722656 18.890625 -15.234375 C 18.484375 -11.753906 18.070312 -8.257812 17.65625 -4.75 C 17.425781 -3.101562 16.8125 -1.78125 15.8125 -0.78125 C 14.820312 0.207031 13.648438 0.875 12.296875 1.21875 C 10.953125 1.570312 9.632812 1.585938 8.34375 1.265625 C 7.050781 0.953125 6.023438 0.285156 5.265625 -0.734375 C 4.503906 -1.765625 4.242188 -3.101562 4.484375 -4.75 C 5.003906 -9.601562 5.554688 -14.445312 6.140625 -19.28125 C 6.734375 -24.113281 7.289062 -28.929688 7.8125 -33.734375 C 8.113281 -36.078125 8.410156 -38.40625 8.703125 -40.71875 C 8.992188 -43.03125 9.253906 -45.359375 9.484375 -47.703125 C 9.722656 -49.753906 9.914062 -51.921875 10.0625 -54.203125 C 10.207031 -56.492188 10.660156 -58.632812 11.421875 -60.625 C 12.003906 -62.207031 12.894531 -63.347656 14.09375 -64.046875 C 15.300781 -64.753906 16.59375 -65.09375 17.96875 -65.0625 C 19.34375 -65.03125 20.613281 -64.675781 21.78125 -64 C 22.957031 -63.332031 23.796875 -62.410156 24.296875 -61.234375 C 24.796875 -60.066406 24.722656 -58.691406 24.078125 -57.109375 C 23.367188 -55.171875 22.957031 -53.070312 22.84375 -50.8125 C 22.726562 -48.5625 22.550781 -46.441406 22.3125 -44.453125 C 22.195312 -43.515625 22.082031 -42.578125 21.96875 -41.640625 C 21.851562 -40.703125 21.734375 -39.765625 21.609375 -38.828125 L 33.828125 -38.828125 C 34.347656 -42.640625 34.929688 -46.429688 35.578125 -50.203125 C 36.222656 -53.984375 36.925781 -57.75 37.6875 -61.5 Z M 37.6875 -61.5 "/></g></g></g><g fill="#000000" fill-opacity="0.502"><g transform="translate(212.530217, 128.447072)"><g><path d="M 36.640625 -18.625 C 38.335938 -18.5625 39.695312 -18.078125 40.71875 -17.171875 C 41.75 -16.265625 42.425781 -15.148438 42.75 -13.828125 C 43.070312 -12.515625 43.070312 -11.195312 42.75 -9.875 C 42.425781 -8.5625 41.75 -7.476562 40.71875 -6.625 C 39.695312 -5.78125 38.335938 -5.414062 36.640625 -5.53125 C 32.648438 -5.644531 28.664062 -5.613281 24.6875 -5.4375 C 20.707031 -5.269531 16.722656 -4.863281 12.734375 -4.21875 C 11.503906 -3.976562 10.21875 -4.078125 8.875 -4.515625 C 7.53125 -4.960938 6.398438 -5.679688 5.484375 -6.671875 C 4.578125 -7.671875 4.242188 -8.960938 4.484375 -10.546875 C 5.472656 -18.679688 6.566406 -26.789062 7.765625 -34.875 C 8.972656 -42.957031 10.28125 -51.015625 11.6875 -59.046875 C 11.863281 -60.035156 12.210938 -60.910156 12.734375 -61.671875 C 13.203125 -62.492188 13.875 -63.164062 14.75 -63.6875 C 15.632812 -64.21875 16.722656 -64.515625 18.015625 -64.578125 C 24.335938 -64.804688 30.660156 -64.6875 36.984375 -64.21875 C 38.679688 -64.101562 40.039062 -63.5625 41.0625 -62.59375 C 42.09375 -61.632812 42.769531 -60.492188 43.09375 -59.171875 C 43.414062 -57.859375 43.414062 -56.554688 43.09375 -55.265625 C 42.769531 -53.972656 42.09375 -52.914062 41.0625 -52.09375 C 40.039062 -51.28125 38.679688 -50.929688 36.984375 -51.046875 C 32.648438 -51.335938 28.226562 -51.484375 23.71875 -51.484375 C 23.425781 -49.785156 23.132812 -48.085938 22.84375 -46.390625 C 22.550781 -44.691406 22.285156 -42.992188 22.046875 -41.296875 C 24.453125 -41.234375 26.769531 -41.113281 29 -40.9375 C 30.75 -40.707031 32.28125 -40.035156 33.59375 -38.921875 C 34.914062 -37.804688 35.578125 -36.285156 35.578125 -34.359375 C 35.578125 -33.242188 35.269531 -32.15625 34.65625 -31.09375 C 34.039062 -30.039062 33.234375 -29.191406 32.234375 -28.546875 C 31.242188 -27.910156 30.164062 -27.648438 29 -27.765625 C 26.007812 -28.054688 23.019531 -28.171875 20.03125 -28.109375 C 19.800781 -26.472656 19.566406 -24.816406 19.328125 -23.140625 C 19.097656 -21.472656 18.863281 -19.789062 18.625 -18.09375 C 21.613281 -18.382812 24.597656 -18.585938 27.578125 -18.703125 C 30.566406 -18.828125 33.585938 -18.800781 36.640625 -18.625 Z M 36.640625 -18.625 "/></g></g></g><g fill="#000000" fill-opacity="0.502"><g transform="translate(260.233781, 128.447072)"><g><path d="M 35.5 -56.75 C 35.675781 -58.394531 36.273438 -59.65625 37.296875 -60.53125 C 38.316406 -61.414062 39.484375 -61.898438 40.796875 -61.984375 C 42.117188 -62.066406 43.410156 -61.832031 44.671875 -61.28125 C 45.929688 -60.726562 46.925781 -59.863281 47.65625 -58.6875 C 48.394531 -57.519531 48.644531 -56.113281 48.40625 -54.46875 C 47.9375 -50.664062 47.5 -46.640625 47.09375 -42.390625 C 46.6875 -38.140625 46.085938 -33.875 45.296875 -29.59375 C 44.503906 -25.320312 43.359375 -21.238281 41.859375 -17.34375 C 40.367188 -13.457031 38.332031 -9.972656 35.75 -6.890625 C 33.175781 -3.816406 29.867188 -1.375 25.828125 0.4375 C 24.304688 1.144531 22.914062 1.289062 21.65625 0.875 C 20.394531 0.46875 19.382812 -0.273438 18.625 -1.359375 C 17.863281 -2.441406 17.410156 -3.671875 17.265625 -5.046875 C 17.117188 -6.421875 17.351562 -7.722656 17.96875 -8.953125 C 18.582031 -10.191406 19.648438 -11.160156 21.171875 -11.859375 C 23.160156 -12.734375 24.785156 -13.976562 26.046875 -15.59375 C 27.304688 -17.207031 28.316406 -18.976562 29.078125 -20.90625 C 26.679688 -20.03125 24.238281 -19.617188 21.75 -19.671875 C 19.257812 -19.734375 16.8125 -20.351562 14.40625 -21.53125 C 11.25 -23.164062 8.894531 -25.414062 7.34375 -28.28125 C 5.789062 -31.15625 4.863281 -34.304688 4.5625 -37.734375 C 4.269531 -41.160156 4.429688 -44.585938 5.046875 -48.015625 C 5.660156 -51.441406 6.582031 -54.53125 7.8125 -57.28125 C 8.457031 -58.863281 9.394531 -59.929688 10.625 -60.484375 C 11.851562 -61.046875 13.128906 -61.191406 14.453125 -60.921875 C 15.773438 -60.660156 16.960938 -60.101562 18.015625 -59.25 C 19.066406 -58.40625 19.78125 -57.320312 20.15625 -56 C 20.539062 -54.6875 20.410156 -53.269531 19.765625 -51.75 C 19.296875 -50.695312 18.828125 -49.332031 18.359375 -47.65625 C 17.890625 -45.988281 17.550781 -44.21875 17.34375 -42.34375 C 17.144531 -40.46875 17.21875 -38.722656 17.5625 -37.109375 C 17.914062 -35.503906 18.738281 -34.289062 20.03125 -33.46875 C 21.207031 -32.707031 22.484375 -32.472656 23.859375 -32.765625 C 25.234375 -33.054688 26.550781 -33.671875 27.8125 -34.609375 C 29.070312 -35.546875 30.195312 -36.628906 31.1875 -37.859375 C 32.1875 -39.097656 32.976562 -40.242188 33.5625 -41.296875 C 33.914062 -43.867188 34.238281 -46.441406 34.53125 -49.015625 C 34.820312 -51.597656 35.144531 -54.175781 35.5 -56.75 Z M 35.5 -56.75 "/></g></g></g><g fill="#000000" fill-opacity="0.502"><g transform="translate(313.120606, 128.447072)"><g><path d="M 14.5 -20.828125 C 16.25 -20.828125 17.8125 -20.179688 19.1875 -18.890625 C 20.570312 -17.597656 21.207031 -16.046875 21.09375 -14.234375 C 20.96875 -11.597656 20.539062 -9.035156 19.8125 -6.546875 C 19.082031 -4.054688 18.039062 -1.671875 16.6875 0.609375 C 15.75 2.140625 14.398438 3.140625 12.640625 3.609375 C 10.890625 4.078125 9.222656 3.867188 7.640625 2.984375 C 6.117188 2.046875 5.109375 0.6875 4.609375 -1.09375 C 4.109375 -2.882812 4.328125 -4.539062 5.265625 -6.0625 C 6.910156 -8.757812 7.789062 -11.484375 7.90625 -14.234375 C 8.019531 -16.046875 8.691406 -17.597656 9.921875 -18.890625 C 11.148438 -20.179688 12.675781 -20.828125 14.5 -20.828125 Z M 14.5 -20.828125 "/></g></g></g><g fill="#000000" fill-opacity="0.502"><g transform="translate(338.597642, 128.447072)"><g/></g></g><g fill="#000000" fill-opacity="0.502"><g transform="translate(365.304614, 128.447072)"><g><path d="M 8.34375 -54.203125 C 8.519531 -55.847656 9.101562 -57.179688 10.09375 -58.203125 C 11.09375 -59.234375 12.265625 -59.90625 13.609375 -60.21875 C 14.960938 -60.539062 16.28125 -60.539062 17.5625 -60.21875 C 18.851562 -59.90625 19.878906 -59.25 20.640625 -58.25 C 21.410156 -57.25 21.707031 -55.898438 21.53125 -54.203125 C 19.832031 -38.335938 18.515625 -22.4375 17.578125 -6.5 C 17.453125 -4.800781 16.921875 -3.453125 15.984375 -2.453125 C 15.046875 -1.460938 13.914062 -0.789062 12.59375 -0.4375 C 11.28125 -0.0820312 9.976562 -0.0820312 8.6875 -0.4375 C 7.40625 -0.789062 6.335938 -1.460938 5.484375 -2.453125 C 4.640625 -3.453125 4.273438 -4.800781 4.390625 -6.5 C 5.328125 -22.4375 6.644531 -38.335938 8.34375 -54.203125 Z M 8.34375 -54.203125 "/></g></g></g><g fill="#000000" fill-opacity="0.502"><g transform="translate(391.308779, 128.447072)"><g><path d="M 19.5 -59.921875 C 20.90625 -58.628906 21.535156 -57.078125 21.390625 -55.265625 C 21.242188 -53.453125 20.613281 -51.898438 19.5 -50.609375 C 19.5 -50.609375 19.484375 -50.59375 19.453125 -50.5625 C 19.429688 -50.53125 19.421875 -50.515625 19.421875 -50.515625 C 19.179688 -50.160156 18.972656 -49.867188 18.796875 -49.640625 C 18.742188 -49.460938 18.671875 -49.269531 18.578125 -49.0625 C 18.492188 -48.863281 18.394531 -48.675781 18.28125 -48.5 C 18.28125 -48.4375 18.21875 -48.273438 18.09375 -48.015625 C 17.976562 -47.753906 17.921875 -47.59375 17.921875 -47.53125 C 17.859375 -47.414062 17.796875 -47.148438 17.734375 -46.734375 C 17.679688 -46.328125 17.625 -46.035156 17.5625 -45.859375 C 17.507812 -45.679688 17.515625 -45.859375 17.578125 -46.390625 C 17.398438 -44.578125 16.753906 -43.050781 15.640625 -41.8125 C 14.523438 -40.582031 12.972656 -39.910156 10.984375 -39.796875 C 9.929688 -39.742188 8.863281 -40.035156 7.78125 -40.671875 C 6.695312 -41.316406 5.832031 -42.148438 5.1875 -43.171875 C 4.539062 -44.203125 4.273438 -45.273438 4.390625 -46.390625 C 4.679688 -48.960938 5.296875 -51.363281 6.234375 -53.59375 C 7.171875 -55.820312 8.488281 -57.929688 10.1875 -59.921875 C 11.363281 -61.328125 12.898438 -61.957031 14.796875 -61.8125 C 16.703125 -61.664062 18.269531 -61.035156 19.5 -59.921875 Z M 19.5 -59.921875 "/></g></g></g><g fill="#000000" fill-opacity="0.502"><g transform="translate(417.049362, 128.447072)"><g><path d="M 65.625 -31.359375 C 65.6875 -26.441406 65.5 -21.507812 65.0625 -16.5625 C 64.625 -11.613281 64.171875 -6.675781 63.703125 -1.75 C 63.523438 -0.113281 62.953125 1.210938 61.984375 2.234375 C 61.015625 3.265625 59.859375 3.941406 58.515625 4.265625 C 57.171875 4.585938 55.851562 4.585938 54.5625 4.265625 C 53.269531 3.941406 52.226562 3.28125 51.4375 2.28125 C 50.644531 1.289062 50.335938 -0.0507812 50.515625 -1.75 C 50.929688 -5.625 51.375 -9.609375 51.84375 -13.703125 C 52.3125 -17.804688 52.617188 -21.90625 52.765625 -26 C 52.910156 -30.101562 52.628906 -34.085938 51.921875 -37.953125 C 51.804688 -38.660156 51.613281 -39.363281 51.34375 -40.0625 C 51.082031 -40.769531 50.925781 -41.472656 50.875 -42.171875 C 50.226562 -41.410156 49.507812 -40.660156 48.71875 -39.921875 C 47.925781 -39.191406 47.328125 -38.507812 46.921875 -37.875 C 45.566406 -35.820312 44.523438 -33.695312 43.796875 -31.5 C 43.066406 -29.300781 42.492188 -27.03125 42.078125 -24.6875 C 41.847656 -23.21875 41.234375 -22.101562 40.234375 -21.34375 C 39.242188 -20.582031 38.101562 -20.144531 36.8125 -20.03125 C 35.519531 -19.914062 34.257812 -20.09375 33.03125 -20.5625 C 31.800781 -21.03125 30.804688 -21.757812 30.046875 -22.75 C 29.285156 -23.75 28.992188 -24.984375 29.171875 -26.453125 C 29.285156 -28.023438 29.382812 -29.617188 29.46875 -31.234375 C 29.5625 -32.847656 29.578125 -34.441406 29.515625 -36.015625 C 29.515625 -36.546875 29.53125 -37.296875 29.5625 -38.265625 C 29.59375 -39.234375 29.5625 -40.1875 29.46875 -41.125 C 29.382812 -42.0625 29.140625 -42.765625 28.734375 -43.234375 C 28.609375 -43.347656 28.578125 -43.460938 28.640625 -43.578125 C 28.578125 -43.578125 28.546875 -43.578125 28.546875 -43.578125 C 28.546875 -43.578125 28.519531 -43.578125 28.46875 -43.578125 C 27.9375 -43.460938 27.421875 -42.945312 26.921875 -42.03125 C 26.429688 -41.125 26.066406 -40.5 25.828125 -40.15625 C 25.179688 -39.09375 24.609375 -37.988281 24.109375 -36.84375 C 23.617188 -35.707031 23.164062 -34.582031 22.75 -33.46875 C 20.820312 -28.195312 19.5625 -22.796875 18.96875 -17.265625 C 18.382812 -11.734375 17.921875 -6.179688 17.578125 -0.609375 C 17.453125 1.085938 16.921875 2.429688 15.984375 3.421875 C 15.046875 4.421875 13.914062 5.09375 12.59375 5.4375 C 11.28125 5.789062 9.976562 5.789062 8.6875 5.4375 C 7.40625 5.09375 6.335938 4.421875 5.484375 3.421875 C 4.640625 2.429688 4.273438 1.085938 4.390625 -0.609375 C 4.679688 -5.242188 5.03125 -9.859375 5.4375 -14.453125 C 5.851562 -19.046875 6.5625 -23.597656 7.5625 -28.109375 C 8.144531 -30.867188 8.914062 -33.753906 9.875 -36.765625 C 10.84375 -39.785156 12.046875 -42.671875 13.484375 -45.421875 C 14.921875 -48.171875 16.664062 -50.570312 18.71875 -52.625 C 20.644531 -54.5 22.910156 -55.769531 25.515625 -56.4375 C 28.128906 -57.113281 30.679688 -57.054688 33.171875 -56.265625 C 35.660156 -55.484375 37.722656 -53.890625 39.359375 -51.484375 C 39.421875 -51.304688 39.507812 -51.128906 39.625 -50.953125 C 39.738281 -50.773438 39.828125 -50.628906 39.890625 -50.515625 C 41.585938 -52.503906 43.445312 -54.097656 45.46875 -55.296875 C 47.488281 -56.503906 49.582031 -57.046875 51.75 -56.921875 C 53.914062 -56.804688 56.140625 -55.753906 58.421875 -53.765625 C 60.472656 -51.953125 61.992188 -49.785156 62.984375 -47.265625 C 63.984375 -44.742188 64.660156 -42.109375 65.015625 -39.359375 C 65.367188 -36.609375 65.570312 -33.941406 65.625 -31.359375 Z M 65.625 -31.359375 "/></g></g></g><g fill="#000000" fill-opacity="0.502"><g transform="translate(487.067304, 128.447072)"><g/></g></g><g fill="#000000" fill-opacity="0.502"><g transform="translate(513.774265, 128.447072)"><g><path d="M 38.75 -21.875 C 40.445312 -21.988281 41.789062 -21.648438 42.78125 -20.859375 C 43.78125 -20.078125 44.453125 -19.039062 44.796875 -17.75 C 45.148438 -16.457031 45.148438 -15.132812 44.796875 -13.78125 C 44.453125 -12.4375 43.765625 -11.28125 42.734375 -10.3125 C 41.710938 -9.351562 40.382812 -8.816406 38.75 -8.703125 C 34.289062 -8.410156 29.910156 -7.851562 25.609375 -7.03125 C 21.304688 -6.207031 17.015625 -5.179688 12.734375 -3.953125 C 11.503906 -3.597656 10.21875 -3.671875 8.875 -4.171875 C 7.53125 -4.671875 6.414062 -5.460938 5.53125 -6.546875 C 4.65625 -7.628906 4.273438 -8.90625 4.390625 -10.375 C 5.097656 -17.21875 5.785156 -24.066406 6.453125 -30.921875 C 7.128906 -37.773438 7.789062 -44.628906 8.4375 -51.484375 C 8.613281 -53.128906 9.195312 -54.460938 10.1875 -55.484375 C 11.1875 -56.503906 12.359375 -57.175781 13.703125 -57.5 C 15.054688 -57.820312 16.359375 -57.820312 17.609375 -57.5 C 18.867188 -57.175781 19.894531 -56.515625 20.6875 -55.515625 C 21.476562 -54.523438 21.785156 -53.179688 21.609375 -51.484375 C 21.085938 -46.035156 20.5625 -40.601562 20.03125 -35.1875 C 19.5 -29.769531 18.972656 -24.367188 18.453125 -18.984375 C 25.066406 -20.390625 31.832031 -21.351562 38.75 -21.875 Z M 38.75 -21.875 "/></g></g></g><g fill="#000000" fill-opacity="0.502"><g transform="translate(563.234862, 128.447072)"><g><path d="M 51.390625 -49.90625 C 51.742188 -46.738281 51.773438 -43.296875 51.484375 -39.578125 C 51.191406 -35.859375 50.519531 -32.140625 49.46875 -28.421875 C 48.414062 -24.703125 46.9375 -21.242188 45.03125 -18.046875 C 43.125 -14.859375 40.78125 -12.164062 38 -9.96875 C 35.21875 -7.769531 31.984375 -6.347656 28.296875 -5.703125 C 24.421875 -5.066406 21.125 -5.363281 18.40625 -6.59375 C 15.6875 -7.820312 13.429688 -9.722656 11.640625 -12.296875 C 9.859375 -14.878906 8.4375 -17.835938 7.375 -21.171875 C 6.320312 -24.515625 5.578125 -28 5.140625 -31.625 C 4.703125 -35.257812 4.46875 -38.726562 4.4375 -42.03125 C 4.40625 -45.34375 4.476562 -48.257812 4.65625 -50.78125 C 4.769531 -52.425781 5.3125 -53.757812 6.28125 -54.78125 C 7.25 -55.800781 8.390625 -56.488281 9.703125 -56.84375 C 11.023438 -57.195312 12.328125 -57.195312 13.609375 -56.84375 C 14.898438 -56.488281 15.957031 -55.8125 16.78125 -54.8125 C 17.601562 -53.820312 17.953125 -52.476562 17.828125 -50.78125 C 17.773438 -49.90625 17.71875 -48.410156 17.65625 -46.296875 C 17.601562 -44.191406 17.632812 -41.804688 17.75 -39.140625 C 17.863281 -36.472656 18.109375 -33.789062 18.484375 -31.09375 C 18.867188 -28.40625 19.425781 -26.003906 20.15625 -23.890625 C 20.894531 -21.785156 21.878906 -20.265625 23.109375 -19.328125 C 24.335938 -18.390625 25.890625 -18.359375 27.765625 -19.234375 C 30.335938 -20.472656 32.382812 -22.289062 33.90625 -24.6875 C 35.4375 -27.09375 36.550781 -29.785156 37.25 -32.765625 C 37.957031 -35.753906 38.367188 -38.753906 38.484375 -41.765625 C 38.597656 -44.785156 38.507812 -47.5 38.21875 -49.90625 C 37.988281 -51.539062 38.253906 -52.867188 39.015625 -53.890625 C 39.773438 -54.921875 40.785156 -55.597656 42.046875 -55.921875 C 43.304688 -56.242188 44.609375 -56.226562 45.953125 -55.875 C 47.296875 -55.519531 48.476562 -54.84375 49.5 -53.84375 C 50.53125 -52.851562 51.160156 -51.539062 51.390625 -49.90625 Z M 51.390625 -49.90625 "/></g></g></g><g fill="#000000" fill-opacity="0.502"><g transform="translate(619.284379, 128.447072)"><g><path d="M 8.34375 -54.125 C 8.519531 -55.757812 9.101562 -57.070312 10.09375 -58.0625 C 11.09375 -59.0625 12.265625 -59.738281 13.609375 -60.09375 C 14.960938 -60.445312 16.28125 -60.460938 17.5625 -60.140625 C 18.851562 -59.816406 19.878906 -59.140625 20.640625 -58.109375 C 21.410156 -57.085938 21.707031 -55.757812 21.53125 -54.125 C 19.832031 -38.25 18.515625 -22.34375 17.578125 -6.40625 C 17.453125 -4.707031 16.921875 -3.347656 15.984375 -2.328125 C 15.046875 -1.304688 13.914062 -0.632812 12.59375 -0.3125 C 11.28125 0.0078125 9.976562 0.0078125 8.6875 -0.3125 C 7.40625 -0.632812 6.335938 -1.304688 5.484375 -2.328125 C 4.640625 -3.347656 4.273438 -4.707031 4.390625 -6.40625 C 5.328125 -22.34375 6.644531 -38.25 8.34375 -54.125 Z M 8.34375 -54.125 "/></g></g></g><g fill="#000000" fill-opacity="0.502"><g transform="translate(645.288522, 128.447072)"><g><path d="M 32.765625 -37.953125 C 36.046875 -35.722656 38.640625 -32.820312 40.546875 -29.25 C 42.453125 -25.675781 43.195312 -21.867188 42.78125 -17.828125 C 42.375 -14.316406 41.175781 -11.300781 39.1875 -8.78125 C 37.195312 -6.269531 34.75 -4.3125 31.84375 -2.90625 C 28.945312 -1.5 25.875 -0.71875 22.625 -0.5625 C 19.375 -0.414062 16.253906 -0.957031 13.265625 -2.1875 C 10.273438 -3.425781 7.753906 -5.421875 5.703125 -8.171875 C 4.648438 -9.515625 4.210938 -10.816406 4.390625 -12.078125 C 4.566406 -13.335938 5.109375 -14.4375 6.015625 -15.375 C 6.921875 -16.3125 8.046875 -16.96875 9.390625 -17.34375 C 10.742188 -17.726562 12.109375 -17.742188 13.484375 -17.390625 C 14.859375 -17.046875 16.046875 -16.195312 17.046875 -14.84375 C 17.515625 -14.195312 18.390625 -13.832031 19.671875 -13.75 C 20.960938 -13.664062 22.253906 -13.722656 23.546875 -13.921875 C 24.835938 -14.128906 25.742188 -14.347656 26.265625 -14.578125 C 27.492188 -15.171875 28.414062 -16.035156 29.03125 -17.171875 C 29.644531 -18.316406 29.867188 -19.5625 29.703125 -20.90625 C 29.523438 -22.550781 28.9375 -23.898438 27.9375 -24.953125 C 26.945312 -26.003906 25.757812 -26.925781 24.375 -27.71875 C 23 -28.507812 21.609375 -29.269531 20.203125 -30 C 18.796875 -30.738281 17.566406 -31.546875 16.515625 -32.421875 C 13.585938 -34.992188 11.800781 -37.785156 11.15625 -40.796875 C 10.507812 -43.816406 10.726562 -46.835938 11.8125 -49.859375 C 12.894531 -52.878906 14.578125 -55.617188 16.859375 -58.078125 C 19.148438 -60.535156 21.757812 -62.4375 24.6875 -63.78125 C 26.269531 -64.539062 27.734375 -64.742188 29.078125 -64.390625 C 30.429688 -64.046875 31.585938 -63.390625 32.546875 -62.421875 C 33.515625 -61.453125 34.175781 -60.320312 34.53125 -59.03125 C 34.882812 -57.75 34.828125 -56.503906 34.359375 -55.296875 C 33.890625 -54.097656 32.890625 -53.148438 31.359375 -52.453125 C 30.367188 -51.984375 29.210938 -51.335938 27.890625 -50.515625 C 26.578125 -49.703125 25.492188 -48.722656 24.640625 -47.578125 C 23.796875 -46.429688 23.632812 -45.15625 24.15625 -43.75 C 24.445312 -42.8125 25.132812 -42.003906 26.21875 -41.328125 C 27.300781 -40.660156 28.457031 -40.0625 29.6875 -39.53125 C 30.925781 -39.007812 31.953125 -38.484375 32.765625 -37.953125 Z M 32.765625 -37.953125 "/></g></g></g><g fill="#f6ecec" fill-opacity="1"><g transform="translate(153.740095, 124.564372)"><g><path d="M 37.6875 -61.5 C 37.976562 -63.195312 38.648438 -64.425781 39.703125 -65.1875 C 40.765625 -65.945312 41.953125 -66.3125 43.265625 -66.28125 C 44.585938 -66.257812 45.847656 -65.910156 47.046875 -65.234375 C 48.242188 -64.554688 49.179688 -63.601562 49.859375 -62.375 C 50.535156 -61.144531 50.695312 -59.679688 50.34375 -57.984375 C 47.175781 -41.878906 45.007812 -25.625 43.84375 -9.21875 C 43.726562 -7.519531 43.1875 -6.160156 42.21875 -5.140625 C 41.25 -4.117188 40.085938 -3.445312 38.734375 -3.125 C 37.390625 -2.800781 36.085938 -2.800781 34.828125 -3.125 C 33.578125 -3.445312 32.539062 -4.117188 31.71875 -5.140625 C 30.894531 -6.160156 30.539062 -7.519531 30.65625 -9.21875 C 30.832031 -11.976562 31.050781 -14.71875 31.3125 -17.4375 C 31.582031 -20.164062 31.863281 -22.90625 32.15625 -25.65625 L 20.125 -25.65625 C 19.707031 -22.195312 19.296875 -18.722656 18.890625 -15.234375 C 18.484375 -11.753906 18.070312 -8.257812 17.65625 -4.75 C 17.425781 -3.101562 16.8125 -1.78125 15.8125 -0.78125 C 14.820312 0.207031 13.648438 0.875 12.296875 1.21875 C 10.953125 1.570312 9.632812 1.585938 8.34375 1.265625 C 7.050781 0.953125 6.023438 0.285156 5.265625 -0.734375 C 4.503906 -1.765625 4.242188 -3.101562 4.484375 -4.75 C 5.003906 -9.601562 5.554688 -14.445312 6.140625 -19.28125 C 6.734375 -24.113281 7.289062 -28.929688 7.8125 -33.734375 C 8.113281 -36.078125 8.410156 -38.40625 8.703125 -40.71875 C 8.992188 -43.03125 9.253906 -45.359375 9.484375 -47.703125 C 9.722656 -49.753906 9.914062 -51.921875 10.0625 -54.203125 C 10.207031 -56.492188 10.660156 -58.632812 11.421875 -60.625 C 12.003906 -62.207031 12.894531 -63.347656 14.09375 -64.046875 C 15.300781 -64.753906 16.59375 -65.09375 17.96875 -65.0625 C 19.34375 -65.03125 20.613281 -64.675781 21.78125 -64 C 22.957031 -63.332031 23.796875 -62.410156 24.296875 -61.234375 C 24.796875 -60.066406 24.722656 -58.691406 24.078125 -57.109375 C 23.367188 -55.171875 22.957031 -53.070312 22.84375 -50.8125 C 22.726562 -48.5625 22.550781 -46.441406 22.3125 -44.453125 C 22.195312 -43.515625 22.082031 -42.578125 21.96875 -41.640625 C 21.851562 -40.703125 21.734375 -39.765625 21.609375 -38.828125 L 33.828125 -38.828125 C 34.347656 -42.640625 34.929688 -46.429688 35.578125 -50.203125 C 36.222656 -53.984375 36.925781 -57.75 37.6875 -61.5 Z M 37.6875 -61.5 "/></g></g></g><g fill="#f6ecec" fill-opacity="1"><g transform="translate(208.647513, 124.564372)"><g><path d="M 36.640625 -18.625 C 38.335938 -18.5625 39.695312 -18.078125 40.71875 -17.171875 C 41.75 -16.265625 42.425781 -15.148438 42.75 -13.828125 C 43.070312 -12.515625 43.070312 -11.195312 42.75 -9.875 C 42.425781 -8.5625 41.75 -7.476562 40.71875 -6.625 C 39.695312 -5.78125 38.335938 -5.414062 36.640625 -5.53125 C 32.648438 -5.644531 28.664062 -5.613281 24.6875 -5.4375 C 20.707031 -5.269531 16.722656 -4.863281 12.734375 -4.21875 C 11.503906 -3.976562 10.21875 -4.078125 8.875 -4.515625 C 7.53125 -4.960938 6.398438 -5.679688 5.484375 -6.671875 C 4.578125 -7.671875 4.242188 -8.960938 4.484375 -10.546875 C 5.472656 -18.679688 6.566406 -26.789062 7.765625 -34.875 C 8.972656 -42.957031 10.28125 -51.015625 11.6875 -59.046875 C 11.863281 -60.035156 12.210938 -60.910156 12.734375 -61.671875 C 13.203125 -62.492188 13.875 -63.164062 14.75 -63.6875 C 15.632812 -64.21875 16.722656 -64.515625 18.015625 -64.578125 C 24.335938 -64.804688 30.660156 -64.6875 36.984375 -64.21875 C 38.679688 -64.101562 40.039062 -63.5625 41.0625 -62.59375 C 42.09375 -61.632812 42.769531 -60.492188 43.09375 -59.171875 C 43.414062 -57.859375 43.414062 -56.554688 43.09375 -55.265625 C 42.769531 -53.972656 42.09375 -52.914062 41.0625 -52.09375 C 40.039062 -51.28125 38.679688 -50.929688 36.984375 -51.046875 C 32.648438 -51.335938 28.226562 -51.484375 23.71875 -51.484375 C 23.425781 -49.785156 23.132812 -48.085938 22.84375 -46.390625 C 22.550781 -44.691406 22.285156 -42.992188 22.046875 -41.296875 C 24.453125 -41.234375 26.769531 -41.113281 29 -40.9375 C 30.75 -40.707031 32.28125 -40.035156 33.59375 -38.921875 C 34.914062 -37.804688 35.578125 -36.285156 35.578125 -34.359375 C 35.578125 -33.242188 35.269531 -32.15625 34.65625 -31.09375 C 34.039062 -30.039062 33.234375 -29.191406 32.234375 -28.546875 C 31.242188 -27.910156 30.164062 -27.648438 29 -27.765625 C 26.007812 -28.054688 23.019531 -28.171875 20.03125 -28.109375 C 19.800781 -26.472656 19.566406 -24.816406 19.328125 -23.140625 C 19.097656 -21.472656 18.863281 -19.789062 18.625 -18.09375 C 21.613281 -18.382812 24.597656 -18.585938 27.578125 -18.703125 C 30.566406 -18.828125 33.585938 -18.800781 36.640625 -18.625 Z M 36.640625 -18.625 "/></g></g></g><g fill="#f6ecec" fill-opacity="1"><g transform="translate(256.351077, 124.564372)"><g><path d="M 35.5 -56.75 C 35.675781 -58.394531 36.273438 -59.65625 37.296875 -60.53125 C 38.316406 -61.414062 39.484375 -61.898438 40.796875 -61.984375 C 42.117188 -62.066406 43.410156 -61.832031 44.671875 -61.28125 C 45.929688 -60.726562 46.925781 -59.863281 47.65625 -58.6875 C 48.394531 -57.519531 48.644531 -56.113281 48.40625 -54.46875 C 47.9375 -50.664062 47.5 -46.640625 47.09375 -42.390625 C 46.6875 -38.140625 46.085938 -33.875 45.296875 -29.59375 C 44.503906 -25.320312 43.359375 -21.238281 41.859375 -17.34375 C 40.367188 -13.457031 38.332031 -9.972656 35.75 -6.890625 C 33.175781 -3.816406 29.867188 -1.375 25.828125 0.4375 C 24.304688 1.144531 22.914062 1.289062 21.65625 0.875 C 20.394531 0.46875 19.382812 -0.273438 18.625 -1.359375 C 17.863281 -2.441406 17.410156 -3.671875 17.265625 -5.046875 C 17.117188 -6.421875 17.351562 -7.722656 17.96875 -8.953125 C 18.582031 -10.191406 19.648438 -11.160156 21.171875 -11.859375 C 23.160156 -12.734375 24.785156 -13.976562 26.046875 -15.59375 C 27.304688 -17.207031 28.316406 -18.976562 29.078125 -20.90625 C 26.679688 -20.03125 24.238281 -19.617188 21.75 -19.671875 C 19.257812 -19.734375 16.8125 -20.351562 14.40625 -21.53125 C 11.25 -23.164062 8.894531 -25.414062 7.34375 -28.28125 C 5.789062 -31.15625 4.863281 -34.304688 4.5625 -37.734375 C 4.269531 -41.160156 4.429688 -44.585938 5.046875 -48.015625 C 5.660156 -51.441406 6.582031 -54.53125 7.8125 -57.28125 C 8.457031 -58.863281 9.394531 -59.929688 10.625 -60.484375 C 11.851562 -61.046875 13.128906 -61.191406 14.453125 -60.921875 C 15.773438 -60.660156 16.960938 -60.101562 18.015625 -59.25 C 19.066406 -58.40625 19.78125 -57.320312 20.15625 -56 C 20.539062 -54.6875 20.410156 -53.269531 19.765625 -51.75 C 19.296875 -50.695312 18.828125 -49.332031 18.359375 -47.65625 C 17.890625 -45.988281 17.550781 -44.21875 17.34375 -42.34375 C 17.144531 -40.46875 17.21875 -38.722656 17.5625 -37.109375 C 17.914062 -35.503906 18.738281 -34.289062 20.03125 -33.46875 C 21.207031 -32.707031 22.484375 -32.472656 23.859375 -32.765625 C 25.234375 -33.054688 26.550781 -33.671875 27.8125 -34.609375 C 29.070312 -35.546875 30.195312 -36.628906 31.1875 -37.859375 C 32.1875 -39.097656 32.976562 -40.242188 33.5625 -41.296875 C 33.914062 -43.867188 34.238281 -46.441406 34.53125 -49.015625 C 34.820312 -51.597656 35.144531 -54.175781 35.5 -56.75 Z M 35.5 -56.75 "/></g></g></g><g fill="#f6ecec" fill-opacity="1"><g transform="translate(309.237902, 124.564372)"><g><path d="M 14.5 -20.828125 C 16.25 -20.828125 17.8125 -20.179688 19.1875 -18.890625 C 20.570312 -17.597656 21.207031 -16.046875 21.09375 -14.234375 C 20.96875 -11.597656 20.539062 -9.035156 19.8125 -6.546875 C 19.082031 -4.054688 18.039062 -1.671875 16.6875 0.609375 C 15.75 2.140625 14.398438 3.140625 12.640625 3.609375 C 10.890625 4.078125 9.222656 3.867188 7.640625 2.984375 C 6.117188 2.046875 5.109375 0.6875 4.609375 -1.09375 C 4.109375 -2.882812 4.328125 -4.539062 5.265625 -6.0625 C 6.910156 -8.757812 7.789062 -11.484375 7.90625 -14.234375 C 8.019531 -16.046875 8.691406 -17.597656 9.921875 -18.890625 C 11.148438 -20.179688 12.675781 -20.828125 14.5 -20.828125 Z M 14.5 -20.828125 "/></g></g></g><g fill="#f6ecec" fill-opacity="1"><g transform="translate(334.714938, 124.564372)"><g/></g></g><g fill="#f6ecec" fill-opacity="1"><g transform="translate(361.421909, 124.564372)"><g><path d="M 8.34375 -54.203125 C 8.519531 -55.847656 9.101562 -57.179688 10.09375 -58.203125 C 11.09375 -59.234375 12.265625 -59.90625 13.609375 -60.21875 C 14.960938 -60.539062 16.28125 -60.539062 17.5625 -60.21875 C 18.851562 -59.90625 19.878906 -59.25 20.640625 -58.25 C 21.410156 -57.25 21.707031 -55.898438 21.53125 -54.203125 C 19.832031 -38.335938 18.515625 -22.4375 17.578125 -6.5 C 17.453125 -4.800781 16.921875 -3.453125 15.984375 -2.453125 C 15.046875 -1.460938 13.914062 -0.789062 12.59375 -0.4375 C 11.28125 -0.0820312 9.976562 -0.0820312 8.6875 -0.4375 C 7.40625 -0.789062 6.335938 -1.460938 5.484375 -2.453125 C 4.640625 -3.453125 4.273438 -4.800781 4.390625 -6.5 C 5.328125 -22.4375 6.644531 -38.335938 8.34375 -54.203125 Z M 8.34375 -54.203125 "/></g></g></g><g fill="#f6ecec" fill-opacity="1"><g transform="translate(387.426075, 124.564372)"><g><path d="M 19.5 -59.921875 C 20.90625 -58.628906 21.535156 -57.078125 21.390625 -55.265625 C 21.242188 -53.453125 20.613281 -51.898438 19.5 -50.609375 C 19.5 -50.609375 19.484375 -50.59375 19.453125 -50.5625 C 19.429688 -50.53125 19.421875 -50.515625 19.421875 -50.515625 C 19.179688 -50.160156 18.972656 -49.867188 18.796875 -49.640625 C 18.742188 -49.460938 18.671875 -49.269531 18.578125 -49.0625 C 18.492188 -48.863281 18.394531 -48.675781 18.28125 -48.5 C 18.28125 -48.4375 18.21875 -48.273438 18.09375 -48.015625 C 17.976562 -47.753906 17.921875 -47.59375 17.921875 -47.53125 C 17.859375 -47.414062 17.796875 -47.148438 17.734375 -46.734375 C 17.679688 -46.328125 17.625 -46.035156 17.5625 -45.859375 C 17.507812 -45.679688 17.515625 -45.859375 17.578125 -46.390625 C 17.398438 -44.578125 16.753906 -43.050781 15.640625 -41.8125 C 14.523438 -40.582031 12.972656 -39.910156 10.984375 -39.796875 C 9.929688 -39.742188 8.863281 -40.035156 7.78125 -40.671875 C 6.695312 -41.316406 5.832031 -42.148438 5.1875 -43.171875 C 4.539062 -44.203125 4.273438 -45.273438 4.390625 -46.390625 C 4.679688 -48.960938 5.296875 -51.363281 6.234375 -53.59375 C 7.171875 -55.820312 8.488281 -57.929688 10.1875 -59.921875 C 11.363281 -61.328125 12.898438 -61.957031 14.796875 -61.8125 C 16.703125 -61.664062 18.269531 -61.035156 19.5 -59.921875 Z M 19.5 -59.921875 "/></g></g></g><g fill="#f6ecec" fill-opacity="1"><g transform="translate(413.166658, 124.564372)"><g><path d="M 65.625 -31.359375 C 65.6875 -26.441406 65.5 -21.507812 65.0625 -16.5625 C 64.625 -11.613281 64.171875 -6.675781 63.703125 -1.75 C 63.523438 -0.113281 62.953125 1.210938 61.984375 2.234375 C 61.015625 3.265625 59.859375 3.941406 58.515625 4.265625 C 57.171875 4.585938 55.851562 4.585938 54.5625 4.265625 C 53.269531 3.941406 52.226562 3.28125 51.4375 2.28125 C 50.644531 1.289062 50.335938 -0.0507812 50.515625 -1.75 C 50.929688 -5.625 51.375 -9.609375 51.84375 -13.703125 C 52.3125 -17.804688 52.617188 -21.90625 52.765625 -26 C 52.910156 -30.101562 52.628906 -34.085938 51.921875 -37.953125 C 51.804688 -38.660156 51.613281 -39.363281 51.34375 -40.0625 C 51.082031 -40.769531 50.925781 -41.472656 50.875 -42.171875 C 50.226562 -41.410156 49.507812 -40.660156 48.71875 -39.921875 C 47.925781 -39.191406 47.328125 -38.507812 46.921875 -37.875 C 45.566406 -35.820312 44.523438 -33.695312 43.796875 -31.5 C 43.066406 -29.300781 42.492188 -27.03125 42.078125 -24.6875 C 41.847656 -23.21875 41.234375 -22.101562 40.234375 -21.34375 C 39.242188 -20.582031 38.101562 -20.144531 36.8125 -20.03125 C 35.519531 -19.914062 34.257812 -20.09375 33.03125 -20.5625 C 31.800781 -21.03125 30.804688 -21.757812 30.046875 -22.75 C 29.285156 -23.75 28.992188 -24.984375 29.171875 -26.453125 C 29.285156 -28.023438 29.382812 -29.617188 29.46875 -31.234375 C 29.5625 -32.847656 29.578125 -34.441406 29.515625 -36.015625 C 29.515625 -36.546875 29.53125 -37.296875 29.5625 -38.265625 C 29.59375 -39.234375 29.5625 -40.1875 29.46875 -41.125 C 29.382812 -42.0625 29.140625 -42.765625 28.734375 -43.234375 C 28.609375 -43.347656 28.578125 -43.460938 28.640625 -43.578125 C 28.578125 -43.578125 28.546875 -43.578125 28.546875 -43.578125 C 28.546875 -43.578125 28.519531 -43.578125 28.46875 -43.578125 C 27.9375 -43.460938 27.421875 -42.945312 26.921875 -42.03125 C 26.429688 -41.125 26.066406 -40.5 25.828125 -40.15625 C 25.179688 -39.09375 24.609375 -37.988281 24.109375 -36.84375 C 23.617188 -35.707031 23.164062 -34.582031 22.75 -33.46875 C 20.820312 -28.195312 19.5625 -22.796875 18.96875 -17.265625 C 18.382812 -11.734375 17.921875 -6.179688 17.578125 -0.609375 C 17.453125 1.085938 16.921875 2.429688 15.984375 3.421875 C 15.046875 4.421875 13.914062 5.09375 12.59375 5.4375 C 11.28125 5.789062 9.976562 5.789062 8.6875 5.4375 C 7.40625 5.09375 6.335938 4.421875 5.484375 3.421875 C 4.640625 2.429688 4.273438 1.085938 4.390625 -0.609375 C 4.679688 -5.242188 5.03125 -9.859375 5.4375 -14.453125 C 5.851562 -19.046875 6.5625 -23.597656 7.5625 -28.109375 C 8.144531 -30.867188 8.914062 -33.753906 9.875 -36.765625 C 10.84375 -39.785156 12.046875 -42.671875 13.484375 -45.421875 C 14.921875 -48.171875 16.664062 -50.570312 18.71875 -52.625 C 20.644531 -54.5 22.910156 -55.769531 25.515625 -56.4375 C 28.128906 -57.113281 30.679688 -57.054688 33.171875 -56.265625 C 35.660156 -55.484375 37.722656 -53.890625 39.359375 -51.484375 C 39.421875 -51.304688 39.507812 -51.128906 39.625 -50.953125 C 39.738281 -50.773438 39.828125 -50.628906 39.890625 -50.515625 C 41.585938 -52.503906 43.445312 -54.097656 45.46875 -55.296875 C 47.488281 -56.503906 49.582031 -57.046875 51.75 -56.921875 C 53.914062 -56.804688 56.140625 -55.753906 58.421875 -53.765625 C 60.472656 -51.953125 61.992188 -49.785156 62.984375 -47.265625 C 63.984375 -44.742188 64.660156 -42.109375 65.015625 -39.359375 C 65.367188 -36.609375 65.570312 -33.941406 65.625 -31.359375 Z M 65.625 -31.359375 "/></g></g></g><g fill="#f6ecec" fill-opacity="1"><g transform="translate(483.1846, 124.564372)"><g/></g></g><g fill="#f6ecec" fill-opacity="1"><g transform="translate(509.891561, 124.564372)"><g><path d="M 38.75 -21.875 C 40.445312 -21.988281 41.789062 -21.648438 42.78125 -20.859375 C 43.78125 -20.078125 44.453125 -19.039062 44.796875 -17.75 C 45.148438 -16.457031 45.148438 -15.132812 44.796875 -13.78125 C 44.453125 -12.4375 43.765625 -11.28125 42.734375 -10.3125 C 41.710938 -9.351562 40.382812 -8.816406 38.75 -8.703125 C 34.289062 -8.410156 29.910156 -7.851562 25.609375 -7.03125 C 21.304688 -6.207031 17.015625 -5.179688 12.734375 -3.953125 C 11.503906 -3.597656 10.21875 -3.671875 8.875 -4.171875 C 7.53125 -4.671875 6.414062 -5.460938 5.53125 -6.546875 C 4.65625 -7.628906 4.273438 -8.90625 4.390625 -10.375 C 5.097656 -17.21875 5.785156 -24.066406 6.453125 -30.921875 C 7.128906 -37.773438 7.789062 -44.628906 8.4375 -51.484375 C 8.613281 -53.128906 9.195312 -54.460938 10.1875 -55.484375 C 11.1875 -56.503906 12.359375 -57.175781 13.703125 -57.5 C 15.054688 -57.820312 16.359375 -57.820312 17.609375 -57.5 C 18.867188 -57.175781 19.894531 -56.515625 20.6875 -55.515625 C 21.476562 -54.523438 21.785156 -53.179688 21.609375 -51.484375 C 21.085938 -46.035156 20.5625 -40.601562 20.03125 -35.1875 C 19.5 -29.769531 18.972656 -24.367188 18.453125 -18.984375 C 25.066406 -20.390625 31.832031 -21.351562 38.75 -21.875 Z M 38.75 -21.875 "/></g></g></g><g fill="#f6ecec" fill-opacity="1"><g transform="translate(559.352158, 124.564372)"><g><path d="M 51.390625 -49.90625 C 51.742188 -46.738281 51.773438 -43.296875 51.484375 -39.578125 C 51.191406 -35.859375 50.519531 -32.140625 49.46875 -28.421875 C 48.414062 -24.703125 46.9375 -21.242188 45.03125 -18.046875 C 43.125 -14.859375 40.78125 -12.164062 38 -9.96875 C 35.21875 -7.769531 31.984375 -6.347656 28.296875 -5.703125 C 24.421875 -5.066406 21.125 -5.363281 18.40625 -6.59375 C 15.6875 -7.820312 13.429688 -9.722656 11.640625 -12.296875 C 9.859375 -14.878906 8.4375 -17.835938 7.375 -21.171875 C 6.320312 -24.515625 5.578125 -28 5.140625 -31.625 C 4.703125 -35.257812 4.46875 -38.726562 4.4375 -42.03125 C 4.40625 -45.34375 4.476562 -48.257812 4.65625 -50.78125 C 4.769531 -52.425781 5.3125 -53.757812 6.28125 -54.78125 C 7.25 -55.800781 8.390625 -56.488281 9.703125 -56.84375 C 11.023438 -57.195312 12.328125 -57.195312 13.609375 -56.84375 C 14.898438 -56.488281 15.957031 -55.8125 16.78125 -54.8125 C 17.601562 -53.820312 17.953125 -52.476562 17.828125 -50.78125 C 17.773438 -49.90625 17.71875 -48.410156 17.65625 -46.296875 C 17.601562 -44.191406 17.632812 -41.804688 17.75 -39.140625 C 17.863281 -36.472656 18.109375 -33.789062 18.484375 -31.09375 C 18.867188 -28.40625 19.425781 -26.003906 20.15625 -23.890625 C 20.894531 -21.785156 21.878906 -20.265625 23.109375 -19.328125 C 24.335938 -18.390625 25.890625 -18.359375 27.765625 -19.234375 C 30.335938 -20.472656 32.382812 -22.289062 33.90625 -24.6875 C 35.4375 -27.09375 36.550781 -29.785156 37.25 -32.765625 C 37.957031 -35.753906 38.367188 -38.753906 38.484375 -41.765625 C 38.597656 -44.785156 38.507812 -47.5 38.21875 -49.90625 C 37.988281 -51.539062 38.253906 -52.867188 39.015625 -53.890625 C 39.773438 -54.921875 40.785156 -55.597656 42.046875 -55.921875 C 43.304688 -56.242188 44.609375 -56.226562 45.953125 -55.875 C 47.296875 -55.519531 48.476562 -54.84375 49.5 -53.84375 C 50.53125 -52.851562 51.160156 -51.539062 51.390625 -49.90625 Z M 51.390625 -49.90625 "/></g></g></g><g fill="#f6ecec" fill-opacity="1"><g transform="translate(615.401675, 124.564372)"><g><path d="M 8.34375 -54.125 C 8.519531 -55.757812 9.101562 -57.070312 10.09375 -58.0625 C 11.09375 -59.0625 12.265625 -59.738281 13.609375 -60.09375 C 14.960938 -60.445312 16.28125 -60.460938 17.5625 -60.140625 C 18.851562 -59.816406 19.878906 -59.140625 20.640625 -58.109375 C 21.410156 -57.085938 21.707031 -55.757812 21.53125 -54.125 C 19.832031 -38.25 18.515625 -22.34375 17.578125 -6.40625 C 17.453125 -4.707031 16.921875 -3.347656 15.984375 -2.328125 C 15.046875 -1.304688 13.914062 -0.632812 12.59375 -0.3125 C 11.28125 0.0078125 9.976562 0.0078125 8.6875 -0.3125 C 7.40625 -0.632812 6.335938 -1.304688 5.484375 -2.328125 C 4.640625 -3.347656 4.273438 -4.707031 4.390625 -6.40625 C 5.328125 -22.34375 6.644531 -38.25 8.34375 -54.125 Z M 8.34375 -54.125 "/></g></g></g><g fill="#f6ecec" fill-opacity="1"><g transform="translate(641.405818, 124.564372)"><g><path d="M 32.765625 -37.953125 C 36.046875 -35.722656 38.640625 -32.820312 40.546875 -29.25 C 42.453125 -25.675781 43.195312 -21.867188 42.78125 -17.828125 C 42.375 -14.316406 41.175781 -11.300781 39.1875 -8.78125 C 37.195312 -6.269531 34.75 -4.3125 31.84375 -2.90625 C 28.945312 -1.5 25.875 -0.71875 22.625 -0.5625 C 19.375 -0.414062 16.253906 -0.957031 13.265625 -2.1875 C 10.273438 -3.425781 7.753906 -5.421875 5.703125 -8.171875 C 4.648438 -9.515625 4.210938 -10.816406 4.390625 -12.078125 C 4.566406 -13.335938 5.109375 -14.4375 6.015625 -15.375 C 6.921875 -16.3125 8.046875 -16.96875 9.390625 -17.34375 C 10.742188 -17.726562 12.109375 -17.742188 13.484375 -17.390625 C 14.859375 -17.046875 16.046875 -16.195312 17.046875 -14.84375 C 17.515625 -14.195312 18.390625 -13.832031 19.671875 -13.75 C 20.960938 -13.664062 22.253906 -13.722656 23.546875 -13.921875 C 24.835938 -14.128906 25.742188 -14.347656 26.265625 -14.578125 C 27.492188 -15.171875 28.414062 -16.035156 29.03125 -17.171875 C 29.644531 -18.316406 29.867188 -19.5625 29.703125 -20.90625 C 29.523438 -22.550781 28.9375 -23.898438 27.9375 -24.953125 C 26.945312 -26.003906 25.757812 -26.925781 24.375 -27.71875 C 23 -28.507812 21.609375 -29.269531 20.203125 -30 C 18.796875 -30.738281 17.566406 -31.546875 16.515625 -32.421875 C 13.585938 -34.992188 11.800781 -37.785156 11.15625 -40.796875 C 10.507812 -43.816406 10.726562 -46.835938 11.8125 -49.859375 C 12.894531 -52.878906 14.578125 -55.617188 16.859375 -58.078125 C 19.148438 -60.535156 21.757812 -62.4375 24.6875 -63.78125 C 26.269531 -64.539062 27.734375 -64.742188 29.078125 -64.390625 C 30.429688 -64.046875 31.585938 -63.390625 32.546875 -62.421875 C 33.515625 -61.453125 34.175781 -60.320312 34.53125 -59.03125 C 34.882812 -57.75 34.828125 -56.503906 34.359375 -55.296875 C 33.890625 -54.097656 32.890625 -53.148438 31.359375 -52.453125 C 30.367188 -51.984375 29.210938 -51.335938 27.890625 -50.515625 C 26.578125 -49.703125 25.492188 -48.722656 24.640625 -47.578125 C 23.796875 -46.429688 23.632812 -45.15625 24.15625 -43.75 C 24.445312 -42.8125 25.132812 -42.003906 26.21875 -41.328125 C 27.300781 -40.660156 28.457031 -40.0625 29.6875 -39.53125 C 30.925781 -39.007812 31.953125 -38.484375 32.765625 -37.953125 Z M 32.765625 -37.953125 "/></g></g></g></svg>